# xmcd
#
# Track frame offsets:
#	150
#	14027
#	31561
#	49545
#	68231
#	85707
#	103669
#	119816
#	132730
#	156772
#	174182
#	190196
#	209245
#	226545
#	246100
#	262168
#
# Disc length: 3707 seconds
#
# Revision: 0
# Processed by: cddbd v1.5.2PL0 Copyright (c) Steve Scherf et al.
# Submitted via: audiograbber 1.83.01
#
DISCID=de0e7910
DTITLE=JonesTM - HC200710
DYEAR=2007
DGENRE=Top 40
TTITLE0=Terri Clark - Dirty Girl
TTITLE1=Wreckers - Tennessee [Edit] 
TTITLE2=Brad Paisley - Ticks [Radio Edit]
TTITLE3=George Strait - Wrapped [Album Version]
TTITLE4=Carolyn Dawn Johnson - Got A Good Day
TTITLE5=Jamie O'Neal - God Don't Make Mistakes [Edit]
TTITLE6=Darryl Worley - Living In The Here And Now [Radio Edit]
TTITLE7=Julie Dexter and Khari Simmons - Moon Bossa [Album Version]
TTITLE8=George Benson and Al Jarreau - Ordinary People [Album Version]
TTITLE9=Chris Korblein With Ray Parker, Jr. and Steve Cole - Boy's Night Out
TTITLE10=Norman Brown - Let's Take A Ride [Radio Edit]
TTITLE11=Four80East - Noodle Soup [Album Version]
TTITLE12=Lynne Fiddmont - Something I Can Feel
TTITLE13=Nyee Moses - No Limits [Album Version]
TTITLE14=Rick Braun - Sao Paulo [Radio Edit]
TTITLE15=Mark Adams - Ordinary People
EXTD=
EXTT0=
EXTT1=
EXTT2=
EXTT3=
EXTT4=
EXTT5=
EXTT6=
EXTT7=
EXTT8=
EXTT9=
EXTT10=
EXTT11=
EXTT12=
EXTT13=
EXTT14=
EXTT15=
PLAYORDER=
